<svg width="18" height="18" viewBox="0 0 18 18" fill="none" xmlns="http://www.w3.org/2000/svg">
<path fill-rule="evenodd" clip-rule="evenodd" d="M3 9.5C3 13.0899 5.91015 16 9.5 16C13.0899 16 16 13.0899 16 9.5C16 5.91015 13.0899 3 9.5 3C5.91015 3 3 5.91015 3 9.5ZM9.5 2C5.35786 2 2 5.35786 2 9.5C2 13.6421 5.35786 17 9.5 17C13.6421 17 17 13.6421 17 9.5C17 5.35786 13.6421 2 9.5 2Z" fill="#AEAEAE"/>
<path d="M6 9.5C6 8.67157 6.67157 8 7.5 8H11.5C12.3284 8 13 8.67157 13 9.5C13 10.3284 12.3284 11 11.5 11H7.5C6.67157 11 6 10.3284 6 9.5Z" fill="#AEAEAE"/>
</svg>
