<svg width="14" height="12" viewBox="0 0 14 12" fill="none" xmlns="http://www.w3.org/2000/svg">
<path d="M5.02142 3.8685C5.02142 3.8685 2.65142 4.131 1.07042 4.3065C0.927917 4.32375 0.801918 4.419 0.754668 4.56375C0.707418 4.7085 0.754667 4.85925 0.859667 4.9545C2.03417 6.02625 3.79892 7.63125 3.79892 7.63125C3.79742 7.63125 3.31442 9.966 2.99342 11.5237C2.96642 11.6647 3.01742 11.814 3.14042 11.9032C3.26267 11.9925 3.42017 11.994 3.54392 11.9242C4.92692 11.1382 6.99842 9.95625 6.99842 9.95625C6.99842 9.95625 9.07067 11.1382 10.4514 11.925C10.5774 11.994 10.7349 11.9925 10.8572 11.9032C10.9802 11.814 11.0312 11.6647 11.0034 11.5245C10.6824 9.966 10.2002 7.63125 10.2002 7.63125C10.2002 7.63125 11.9649 6.02625 13.1394 4.95675C13.2444 4.8585 13.2909 4.70775 13.2444 4.56375C13.1979 4.41975 13.0719 4.3245 12.9294 4.308C11.3484 4.131 8.97767 3.8685 8.97767 3.8685C8.97767 3.8685 7.99517 1.695 7.34042 0.245998C7.27892 0.116248 7.14992 0.0254974 6.99842 0.0254974C6.84692 0.0254974 6.71717 0.116998 6.65867 0.245998C6.00317 1.695 5.02142 3.8685 5.02142 3.8685Z" fill="#AEAEAE"/>
</svg>
